<svg t="1757727805028" class="icon" viewBox="0 0 1024 1024" version="1.1" xmlns="http://www.w3.org/2000/svg" p-id="12505" width="14" height="14"><path d="M716.8 51.2H307.2c-141.38368 0-256 114.61632-256 256v409.6c0 141.38368 114.61632 256 256 256h409.6c141.38368 0 256-114.61632 256-256V307.2c0-141.38368-114.61632-256-256-256zM354.69312 751.104c-27.904 0-50.69312-5.12-69.12512-24.064l28.67712-28.672c9.47712 9.472 26.11712 12.8 40.704 12.8 17.664 0 26.11712-5.888 26.11712-16.38912 0-4.352-1.024-7.936-3.584-10.752-2.304-2.304-6.144-4.096-12.032-4.864l-22.02112-3.07712c-16.128-2.29888-28.42112-7.68-36.608-16.12288-8.448-8.704-12.544-20.99712-12.544-36.608 0-33.28512 25.088-57.60512 66.56512-57.60512 26.112 0 45.824 6.144 61.44 21.76l-28.16 28.16512c-11.52-11.52512-26.624-10.75712-34.56-10.75712-15.62112 0-22.02112 8.96-22.02112 16.90112 0 2.29888 0.768 5.632 3.584 8.448 2.304 2.29888 6.144 4.60288 12.544 5.37088l22.02112 3.07712c16.37888 2.304 28.16 7.424 35.84 15.104 9.728 9.472 13.568 23.04 13.568 39.94112 0 37.12-32 57.344-70.40512 57.344z m212.736 5.63712l-14.08-14.08c-9.728 5.632-21.248 8.44288-35.328 8.44288-22.272 0-37.63712-7.16288-50.94912-20.48-19.2-19.20512-18.432-44.80512-18.432-72.19712 0-27.39712-0.768-53.00224 18.432-72.20224 13.31712-13.312 28.68224-20.48 50.94912-20.48s37.63712 7.168 50.94912 20.48c19.2 19.2 18.432 44.80512 18.432 72.20224 0 22.784 0.512 44.544-10.50112 62.208l13.32224 13.312-22.79424 22.79424z m172.29312-7.17312h-121.34912v-182.28224h44.8V709.632h76.54912v39.936zM885.76 445.44h-102.4c-113.11104 0-204.8-91.68896-204.8-204.8V138.24h102.4c113.11104 0 204.8 91.68896 204.8 204.8v102.4z" p-id="12506" fill="#515151"></path><path d="M518.02112 605.69088c-8.192 0-14.592 3.57888-17.92 7.936-4.10112 5.376-6.66112 11.52512-6.66112 44.80512s2.56 39.168 6.66112 44.544c3.328 4.35712 9.728 8.19712 17.92 8.19712 1.28 0 2.304 0 3.584-0.26112l-11.52512-11.52 22.78912-22.784 8.69888 8.704c0.51712-6.144 1.02912-14.592 1.02912-26.88 0-33.28-2.56-39.42912-6.66112-44.80512-3.328-4.35712-9.728-7.936-17.91488-7.936z" p-id="12507" fill="#515151"></path></svg>